<svg width="11" height="10" viewBox="0 0 11 10" fill="none" xmlns="http://www.w3.org/2000/svg">
<path fill-rule="evenodd" clip-rule="evenodd" d="M9.11267 4.38013L9.4335 6.87596C9.67142 8.50513 8.72517 9.16763 7.45433 9.16763H4.00017C2.72558 9.16763 1.75017 8.70929 2.01267 6.87596L2.33767 4.38013C2.38767 4.00929 2.56683 3.66346 2.846 3.40929C3.05892 3.22221 3.3335 3.12179 3.61683 3.12179V3.02596C3.5835 2.25513 3.97975 1.52596 4.646 1.13013C5.31267 0.734294 6.146 0.734294 6.81267 1.13013C7.47933 1.52596 7.871 2.25513 7.84183 3.02596V3.12179C8.36683 3.12179 8.921 3.48846 9.11267 4.38013ZM4.25017 3.02596C4.25017 2.21763 4.9085 1.5593 5.721 1.5593C6.53767 1.5593 7.196 2.21763 7.196 3.02596V3.11805H4.25017V3.02596ZM4.13766 4.83013C4.13766 5.03013 4.30433 5.1968 4.50849 5.1968C4.71266 5.1968 4.87516 5.03013 4.87516 4.83013C4.87516 4.62596 4.71266 4.46346 4.50849 4.46346C4.30433 4.46346 4.13766 4.62596 4.13766 4.83013ZM6.92517 5.1968C7.021 5.1968 7.11683 5.1593 7.1835 5.08846C7.25433 5.0218 7.29183 4.92596 7.29183 4.83013C7.29183 4.62596 7.12517 4.46346 6.92517 4.46346C6.72142 4.46346 6.55433 4.62596 6.55433 4.83013C6.55433 5.03013 6.72142 5.1968 6.92517 5.1968Z" fill="white"/>
</svg>
