<svg width="8" height="8" viewBox="0 0 8 8" fill="none" xmlns="http://www.w3.org/2000/svg">
<path fill-rule="evenodd" clip-rule="evenodd" d="M4.0002 0.666687C4.8832 0.666687 5.7332 1.01669 6.35654 1.64335C6.9832 2.27035 7.33354 3.11669 7.33354 4.00335C7.33354 5.17002 6.71987 6.25335 5.71987 6.85669C4.71987 7.46002 3.47654 7.49335 2.44354 6.94335H2.4332C2.37615 6.92045 2.32543 6.88772 2.27498 6.85517C2.2373 6.83086 2.19977 6.80664 2.15987 6.78669C2.05687 6.74335 1.93987 6.73669 1.83354 6.77035C1.58654 6.85669 1.33654 6.92669 1.07987 6.98669C0.946537 6.99002 0.906537 6.91002 0.906537 6.78002C0.966537 6.51669 1.04654 6.25635 1.1402 6.00335C1.17654 5.89335 1.16687 5.77669 1.1102 5.67302L1.04354 5.54335C0.796537 5.07335 0.66687 4.55002 0.66687 4.02035V4.00002C0.66687 3.11669 1.01654 2.26669 1.6432 1.64335C2.26987 1.01669 3.11654 0.666687 4.0002 0.666687ZM2.4632 4.43002C2.22654 4.43002 2.03654 4.23669 2.03654 4.00335C2.03654 3.76669 2.22654 3.57669 2.4632 3.57669C2.69654 3.57669 2.8902 3.76669 2.8902 4.00335C2.8902 4.23669 2.69654 4.43002 2.4632 4.43002ZM3.5732 4.00335C3.5732 4.23669 3.76354 4.43002 4.0002 4.43002C4.23687 4.43002 4.42654 4.23669 4.42654 4.00335C4.42654 3.76669 4.23687 3.57669 4.0002 3.57669C3.76354 3.57669 3.5732 3.76669 3.5732 4.00335ZM5.1102 4.00335C5.1102 4.23669 5.3032 4.43002 5.53654 4.43002C5.7732 4.43002 5.9632 4.23669 5.9632 4.00335C5.9632 3.76669 5.7732 3.57669 5.53654 3.57669C5.3032 3.57669 5.1102 3.76669 5.1102 4.00335Z" fill="#11142D"/>
</svg>
