<svg width="11" height="10" viewBox="0 0 11 10" fill="none" xmlns="http://www.w3.org/2000/svg">
<path fill-rule="evenodd" clip-rule="evenodd" d="M5.71989 0.833252C6.82364 0.833252 7.88614 1.27075 8.66531 2.05409C9.44864 2.83784 9.88656 3.89575 9.88656 5.00409C9.88656 6.46242 9.11947 7.81659 7.86947 8.57075C6.61947 9.32492 5.06531 9.36658 3.77406 8.67909H3.76114C3.68982 8.65046 3.62642 8.60955 3.56336 8.56885C3.51626 8.53846 3.46935 8.50819 3.41947 8.48325C3.29072 8.42909 3.14447 8.42075 3.01156 8.46284C2.70281 8.57075 2.39031 8.65825 2.06947 8.73325C1.90281 8.73742 1.85281 8.63742 1.85281 8.47492C1.92781 8.14575 2.02781 7.82034 2.14489 7.50409C2.19031 7.36659 2.17822 7.22075 2.10739 7.09117L2.02406 6.92909C1.71531 6.34159 1.55322 5.68742 1.55322 5.02534V4.99992C1.55322 3.89575 1.99031 2.83325 2.77364 2.05409C3.55697 1.27075 4.61531 0.833252 5.71989 0.833252ZM3.79863 5.53741C3.5028 5.53741 3.2653 5.29575 3.2653 5.00408C3.2653 4.70825 3.5028 4.47075 3.79863 4.47075C4.0903 4.47075 4.33238 4.70825 4.33238 5.00408C4.33238 5.29575 4.0903 5.53741 3.79863 5.53741ZM5.18614 5.00408C5.18614 5.29575 5.42406 5.53741 5.71989 5.53741C6.01573 5.53741 6.25281 5.29575 6.25281 5.00408C6.25281 4.70825 6.01573 4.47075 5.71989 4.47075C5.42406 4.47075 5.18614 4.70825 5.18614 5.00408ZM7.1074 5.00408C7.1074 5.29575 7.34865 5.53741 7.64031 5.53741C7.93615 5.53741 8.17365 5.29575 8.17365 5.00408C8.17365 4.70825 7.93615 4.47075 7.64031 4.47075C7.34865 4.47075 7.1074 4.70825 7.1074 5.00408Z" fill="white"/>
</svg>
