<svg width="11" height="10" viewBox="0 0 11 10" fill="none" xmlns="http://www.w3.org/2000/svg">
<path fill-rule="evenodd" clip-rule="evenodd" d="M7.32358 1.04206C7.58649 1.04206 7.84899 1.07914 8.09857 1.16289C9.63649 1.66289 10.1907 3.35039 9.72774 4.82539C9.46524 5.57914 9.03608 6.26706 8.47399 6.82914C7.66941 7.60831 6.78649 8.29998 5.83607 8.89581L5.73191 8.95873L5.62357 8.89164C4.66982 8.29998 3.78191 7.60831 2.96982 6.82498C2.41149 6.26289 1.98191 5.57914 1.71524 4.82539C1.24441 3.35039 1.79857 1.66289 3.35316 1.15414C3.47399 1.11248 3.59857 1.08331 3.72357 1.06706H3.77357C3.89066 1.04998 4.00691 1.04206 4.12357 1.04206H4.16941C4.43191 1.04998 4.68607 1.09581 4.93232 1.17956H4.95691C4.97357 1.18748 4.98607 1.19623 4.99441 1.20414C5.08649 1.23373 5.17357 1.26706 5.25691 1.31289L5.41524 1.38373C5.4535 1.40413 5.49644 1.43531 5.53356 1.46225C5.55707 1.47933 5.57825 1.4947 5.59441 1.50456C5.60121 1.50857 5.60812 1.51261 5.61509 1.51667C5.65081 1.53753 5.68803 1.55925 5.71941 1.58331C6.18232 1.22956 6.74441 1.03789 7.32358 1.04206ZM8.43192 4.04197C8.60275 4.03739 8.74858 3.9003 8.76108 3.72489V3.6753C8.77358 3.09155 8.41983 2.5628 7.88192 2.35864C7.71108 2.29989 7.52358 2.39197 7.46108 2.56697C7.40275 2.74197 7.49442 2.93364 7.66942 2.99572C7.9365 3.09572 8.11525 3.35864 8.11525 3.64989V3.6628C8.10733 3.75822 8.13608 3.8503 8.19442 3.92114C8.25275 3.99197 8.34025 4.03322 8.43192 4.04197Z" fill="white"/>
</svg>
