<svg width="86" height="31" viewBox="0 0 86 31" fill="none" xmlns="http://www.w3.org/2000/svg">
<path fill-rule="evenodd" clip-rule="evenodd" d="M51.5492 3.91884C54.0478 3.5934 51.5492 1.85677 51.5492 1.85677C45.9061 -2.59397 34.7214 7.61099 34.7214 7.61099C23.107 18.1391 20.5029 26.7157 20.0691 28.6695C19.6331 30.6227 20.936 30.6227 20.936 30.6227C24.843 20.6349 35.2657 11.5191 35.2657 11.5191C42.2128 5.00402 51.5492 3.91884 51.5492 3.91884ZM24.0844 14.6652C24.0844 14.6652 22.02 5.54776 21.9146 3.15852C21.9146 3.15852 21.5869 2.07277 22.8898 2.83424C22.8898 2.83424 27.9937 7.17496 25.4962 14.6652C25.4962 14.6652 24.843 16.5119 24.0844 14.6652Z" fill="#FF754C"/>
<path fill-rule="evenodd" clip-rule="evenodd" d="M6.37892 9.17717C5.07486 9.17717 3.74834 9.30677 2.85669 9.52508L0.117821 23.94H2.59519L3.66078 18.3954C3.73124 18.4031 3.80375 18.4115 3.87832 18.4202C4.21835 18.4598 4.60148 18.5043 5.02993 18.5043C6.76887 18.5043 8.44445 18.0475 9.61775 17.1127C10.6615 16.2873 11.488 14.8726 11.488 13.1343C11.488 11.8279 10.9881 10.8729 10.1402 10.2209C9.18403 9.45884 7.74922 9.17717 6.37892 9.17717ZM5.37899 16.4382C4.83524 16.4382 4.46488 16.3956 4.05246 16.3086L4.98731 11.3291C5.29143 11.2433 5.76951 11.1995 6.40138 11.1995C7.83504 11.1995 8.94326 11.764 8.94326 13.329C8.94326 15.0685 7.50845 16.4382 5.37899 16.4382Z" fill="white"/>
<path fill-rule="evenodd" clip-rule="evenodd" d="M17.3457 21.6801C17.2615 22.5318 17.1822 23.3347 17.1822 23.9403H19.5086C19.4649 22.6789 19.6382 20.6779 19.9435 19.1129L21.0523 13.5902C20.2257 13.3293 18.9862 13.1122 17.8342 13.1122C12.8985 13.1122 10.3762 16.961 10.3762 20.5702C10.3762 22.7002 11.6169 24.1788 13.5079 24.1788C14.8557 24.1788 16.2698 23.5055 17.3129 21.569H17.3567C17.353 21.6061 17.3494 21.6431 17.3457 21.6801ZM17.1609 15.0688C17.6176 15.0688 17.9431 15.1109 18.2034 15.1771L17.6608 17.9609C17.1609 20.6577 15.7249 22.1352 14.5303 22.1352C13.4209 22.1352 13.0079 21.2211 13.0079 20.114C13.0079 17.7006 14.8344 15.0688 17.1609 15.0688Z" fill="white"/>
<path fill-rule="evenodd" clip-rule="evenodd" d="M37.1585 24.1785C40.7665 24.1785 43.2675 21.0917 43.2675 17.4837C43.2675 15.1561 41.7889 13.1124 38.9412 13.1124C35.332 13.1124 32.8321 16.2217 32.8321 19.8078C32.8321 22.3307 34.4829 24.1785 37.1585 24.1785ZM37.5058 22.2236C36.2011 22.2236 35.4403 21.1989 35.4403 19.7439C35.4403 17.7653 36.6147 15.0685 38.637 15.0685C40.1577 15.0685 40.6588 16.4163 40.6588 17.5044C40.6588 19.6131 39.3974 22.2236 37.5058 22.2236Z" fill="white"/>
<path d="M43.7444 23.94L45.1147 16.6341C45.375 15.3726 45.5271 14.2638 45.6578 13.3515H47.9204L47.6807 15.243H47.7234C48.7008 13.829 50.0498 13.1118 51.5284 13.1118C53.0496 13.1118 54.2241 14.026 54.2241 16.0258C54.2241 16.5033 54.1388 17.2423 54.0294 17.7648L52.8751 23.94H50.3315L51.461 17.9606C51.5284 17.5695 51.5929 17.1127 51.5929 16.6992C51.5929 15.8075 51.2669 15.1768 50.267 15.1768C49.115 15.1768 47.6358 16.5678 47.1796 19.0481L46.2667 23.94H43.7444Z" fill="white"/>
<path fill-rule="evenodd" clip-rule="evenodd" d="M59.6351 24.1775C60.919 24.1775 62.3308 23.8728 63.375 23.3296L63.1383 21.4818C62.3751 21.8729 61.4201 22.1776 60.2232 22.1776C59.2215 22.1776 58.4629 21.8084 58.0494 21.0901C57.8097 20.6766 57.7228 19.9595 57.7671 19.5902C61.8544 19.6766 64.7016 18.8075 64.7016 16.0905C64.7016 14.3066 63.375 13.1114 61.2882 13.1114C57.6352 13.1114 55.2886 16.5899 55.2886 19.7861C55.2886 22.374 56.7027 24.1775 59.6351 24.1775ZM58.0269 17.6992C58.331 16.4153 59.3736 15.0024 60.9616 15.0024C61.7669 15.0024 62.3106 15.4166 62.3106 16.0905C62.3106 17.3727 60.635 17.7206 58.0269 17.6992Z" fill="white"/>
<path fill-rule="evenodd" clip-rule="evenodd" d="M69.4844 24.1775C70.766 24.1775 72.1795 23.8728 73.2221 23.3296L72.9854 21.4818C72.2222 21.8729 71.2672 22.1776 70.0702 22.1776C69.0703 22.1776 68.31 21.8084 67.8964 21.0901C67.6568 20.6766 67.5692 19.9595 67.6142 19.5902C71.7015 19.6766 74.5509 18.8075 74.5509 16.0905C74.5509 14.3066 73.2221 13.1114 71.1353 13.1114C67.4823 13.1114 65.1357 16.5899 65.1357 19.7861C65.1357 22.374 66.5497 24.1775 69.4844 24.1775ZM67.874 17.6992C68.1781 16.4153 69.2224 15.0024 70.8087 15.0024C71.6139 15.0024 72.1576 15.4166 72.1576 16.0905C72.1576 17.3727 70.4821 17.7206 67.874 17.6992Z" fill="white"/>
<path d="M74.7011 23.94L75.9401 17.4169C76.2223 15.917 76.3744 14.2863 76.4815 13.3515H78.6784C78.6133 14.0686 78.5488 14.8076 78.4393 15.5696H78.5038C79.2244 14.1556 80.3741 13.1118 81.8101 13.1118C82.0071 13.1118 82.2018 13.1343 82.3763 13.1343L81.8752 15.6128C81.745 15.5904 81.571 15.5904 81.3965 15.5904C79.5908 15.5904 78.4393 17.4169 78.0275 19.6776L77.2223 23.94H74.7011Z" fill="white"/>
<path fill-rule="evenodd" clip-rule="evenodd" d="M84.4653 13.6524C84.3426 13.6524 84.2107 13.6644 84.1186 13.6812V15.0647H84.3V14.4576H84.4699C84.6335 14.4645 84.7113 14.5359 84.7539 14.7295C84.7896 14.904 84.8213 15.0221 84.8437 15.0647H85.0315C85.0021 15.01 84.9687 14.8735 84.9238 14.6799C84.8881 14.5348 84.8253 14.434 84.7182 14.3971V14.3902C84.8752 14.3444 84.9824 14.1995 84.9802 14.036C84.9838 13.9349 84.9437 13.8371 84.8702 13.7675C84.7856 13.6915 84.6577 13.6524 84.4653 13.6524ZM84.4855 14.3199H84.3V13.8079C84.3294 13.801 84.3916 13.7946 84.4791 13.7946C84.6692 13.7946 84.8011 13.8735 84.8011 14.0538C84.8011 14.2139 84.6755 14.3199 84.4855 14.3199Z" fill="white"/>
<path fill-rule="evenodd" clip-rule="evenodd" d="M83.3277 14.3648C83.3277 13.6903 83.8611 13.1367 84.5351 13.1117C85.2091 13.1367 85.7425 13.6903 85.7425 14.3648C85.7425 15.0392 85.2091 15.5928 84.5351 15.6179C83.8611 15.5928 83.3277 15.0392 83.3277 14.3648ZM85.2837 13.6155C85.0852 13.4169 84.8159 13.3052 84.5351 13.3052C84.1062 13.3045 83.7192 13.5624 83.5547 13.9584C83.3901 14.3545 83.4805 14.8106 83.7836 15.1141C84.0866 15.4175 84.5427 15.5083 84.939 15.3442C85.3352 15.1801 85.5934 14.7934 85.5932 14.3645C85.5935 14.0837 85.4822 13.8142 85.2837 13.6155Z" fill="white"/>
</svg>
