<svg width="88" height="22" viewBox="0 0 88 22" fill="none" xmlns="http://www.w3.org/2000/svg">
<path fill-rule="evenodd" clip-rule="evenodd" d="M27.9414 4.78961H32.7949C34.4194 4.78961 35.6428 5.21826 36.3327 6.02871C36.9607 6.76677 37.1687 7.82064 36.9515 9.16193C36.4696 12.2277 34.6245 13.7748 31.4274 13.7748H29.8909C29.559 13.775 29.2766 14.0168 29.2252 14.3447L28.6958 17.7015C28.6444 18.0297 28.3616 18.2715 28.0294 18.2714H25.7123C25.594 18.2715 25.4816 18.2199 25.4046 18.1301C25.3276 18.0403 25.2938 17.9213 25.3121 17.8044L27.275 5.35877C27.3268 5.03087 27.6095 4.7894 27.9414 4.78961ZM30.4721 11.0766C31.7588 11.0766 33.0894 11.0766 33.3548 9.3351C33.4521 8.72335 33.374 8.28052 33.1192 7.98245C32.692 7.48284 31.8652 7.48284 30.9888 7.48284H30.6531C30.4541 7.48284 30.2846 7.62761 30.2536 7.82419L29.7398 11.0766H30.4721Z" fill="#002685"/>
<path fill-rule="evenodd" clip-rule="evenodd" d="M44.9787 9.27904H47.3028C47.4209 9.279 47.5331 9.33075 47.6097 9.42061C47.6863 9.51047 47.7197 9.62941 47.701 9.746L46.4448 17.7008C46.3934 18.029 46.1107 18.2708 45.7785 18.2706H43.6849C43.5666 18.2705 43.4543 18.2185 43.3775 18.1284C43.3008 18.0383 43.2674 17.9191 43.2861 17.8023L43.3897 17.1565C43.3897 17.1565 42.2421 18.4871 40.1727 18.4871C38.967 18.4871 37.9536 18.1394 37.2453 17.3048C36.4732 16.3971 36.1574 15.0956 36.3795 13.7344C36.8067 11.0057 39.0003 9.06046 41.5687 9.06046C42.6885 9.06046 43.8105 9.30458 44.3137 10.0348L44.4762 10.2705L44.5791 9.62039C44.6102 9.42381 44.7796 9.27904 44.9787 9.27904ZM41.4409 16.0217C42.785 16.0217 43.8389 15.1303 44.0632 13.8025C44.1647 13.1596 44.0241 12.5762 43.67 12.1582C43.3166 11.7445 42.7801 11.5252 42.1201 11.5252C40.7965 11.5252 39.7249 12.4456 39.5156 13.7621C39.4063 14.4079 39.5369 14.9877 39.8803 15.395C40.2267 15.8052 40.766 16.0217 41.4409 16.0217Z" fill="#002685"/>
<path d="M59.681 9.27902H57.3455C57.1219 9.27938 56.9128 9.39013 56.787 9.57496L53.5657 14.3199L52.2003 9.76018C52.1143 9.47464 51.8513 9.27917 51.5531 9.27902H49.258C49.1273 9.27868 49.0045 9.34151 48.9283 9.44772C48.8521 9.55392 48.8319 9.6904 48.8741 9.81412L51.4466 17.3637L49.0281 20.7779C48.9404 20.9013 48.929 21.0633 48.9985 21.1978C49.068 21.3323 49.2067 21.4167 49.3581 21.4166H51.6908C51.9118 21.4169 52.119 21.3087 52.245 21.1271L60.0132 9.91418C60.099 9.79054 60.109 9.62947 60.0393 9.4961C59.9696 9.36272 59.8315 9.27909 59.681 9.27902Z" fill="#002685"/>
<path fill-rule="evenodd" clip-rule="evenodd" d="M62.5595 4.78961H67.4137C69.0381 4.78961 70.2609 5.21826 70.95 6.02871C71.5781 6.76677 71.7874 7.82064 71.5696 9.16193C71.087 12.2277 69.2425 13.7748 66.0447 13.7748H64.509C64.1771 13.775 63.8947 14.0168 63.8433 14.3447L63.2862 17.8725C63.2502 18.1019 63.0528 18.271 62.8207 18.2714H60.3297C60.2116 18.2714 60.0993 18.2196 60.0226 18.1298C59.9459 18.04 59.9124 17.9211 59.9308 17.8044L61.8938 5.35877C61.9455 5.03113 62.2278 4.78975 62.5595 4.78961ZM65.0909 11.0766C66.3783 11.0766 67.7089 11.0766 67.9736 9.3351C68.0708 8.72335 67.9935 8.28051 67.7387 7.98245C67.3115 7.48284 66.484 7.48284 65.6083 7.48284H65.2726C65.0736 7.48259 64.9042 7.62757 64.8737 7.82419L64.3592 11.0766H65.0909Z" fill="#A0D7E7"/>
<path fill-rule="evenodd" clip-rule="evenodd" d="M79.5981 9.27904H81.9209C82.0392 9.2789 82.1517 9.33049 82.2288 9.42027C82.3059 9.51006 82.3399 9.62905 82.3219 9.746L81.065 17.7008C81.0137 18.0287 80.7313 18.2705 80.3994 18.2706H78.3065C78.1879 18.2709 78.0752 18.2191 77.9982 18.1289C77.9211 18.0388 77.8875 17.9194 77.9063 17.8023L78.0099 17.1565C78.0099 17.1565 76.8623 18.4871 74.7929 18.4871C73.5872 18.4871 72.5752 18.1394 71.8655 17.3048C71.0934 16.3971 70.779 15.0956 71.0004 13.7344C71.4276 11.0057 73.6205 9.06046 76.1888 9.06046C77.3087 9.06046 78.43 9.30458 78.9332 10.0348L79.0964 10.2705L79.1993 9.62039C79.2295 9.42361 79.399 9.27849 79.5981 9.27904ZM76.059 16.0217C77.4031 16.0217 78.4584 15.1303 78.6812 13.8025C78.7841 13.1596 78.6436 12.5762 78.2881 12.1582C77.9346 11.7445 77.3981 11.5252 76.7381 11.5252C75.4146 11.5252 74.3444 12.4456 74.1336 13.7621C74.0257 14.4079 74.1549 14.9877 74.4984 15.395C74.8447 15.8052 75.3855 16.0217 76.059 16.0217Z" fill="#A0D7E7"/>
<path d="M84.661 5.13097L82.6689 17.8044C82.6504 17.9211 82.684 18.04 82.7607 18.1298C82.8374 18.2196 82.9496 18.2714 83.0678 18.2714H85.0705C85.4033 18.2714 85.6858 18.0301 85.7368 17.7015L87.7012 5.25659C87.7197 5.13984 87.6862 5.02087 87.6095 4.93094C87.5328 4.84101 87.4206 4.78912 87.3024 4.78891H85.0598C84.8609 4.78961 84.692 4.93453 84.661 5.13097Z" fill="#A0D7E7"/>
<path d="M5.15651 20.6899L5.52767 18.3324L4.7009 18.3132H0.75296L3.49657 0.916912C3.51346 0.807051 3.60826 0.726132 3.71941 0.726718H10.3762C12.5861 0.726718 14.1112 1.18659 14.9075 2.09427C15.2808 2.52007 15.5185 2.96504 15.6335 3.45472C15.7541 3.96852 15.7563 4.5824 15.6384 5.33111L15.6299 5.38575V5.86549L16.0032 6.07698C16.2882 6.22135 16.5443 6.41666 16.759 6.65323C17.0784 7.0173 17.2849 7.48001 17.3722 8.02859C17.4623 8.59278 17.4325 9.26414 17.2849 10.0242C17.1146 10.8985 16.8392 11.66 16.4673 12.2831C16.1392 12.8413 15.6981 13.3248 15.1722 13.7025C14.6783 14.053 14.0913 14.3192 13.4278 14.4895C12.7848 14.657 12.0517 14.7414 11.2477 14.7414H10.7296C10.3592 14.7414 9.99935 14.8748 9.7169 15.114C9.43484 15.3557 9.24774 15.6897 9.1889 16.0565L9.14986 16.2687L8.49412 20.4238L8.46431 20.5764C8.45651 20.6247 8.44302 20.6488 8.42315 20.6651C8.4039 20.6808 8.37989 20.6896 8.35502 20.6899H5.15651Z" fill="#002685"/>
<path d="M16.3566 5.4411C16.3368 5.56813 16.3141 5.698 16.2885 5.83142C15.4106 10.3386 12.4073 11.8956 8.57148 11.8956H6.61844C6.14935 11.8956 5.75406 12.2363 5.68096 12.699L4.68103 19.0406L4.39786 20.8383C4.37504 20.9826 4.41651 21.1296 4.51138 21.2407C4.60625 21.3518 4.74499 21.4159 4.89109 21.4159H8.35503C8.76522 21.4159 9.11367 21.1179 9.17825 20.7134L9.21232 20.5374L9.86451 16.3985L9.90638 16.1714C9.97025 15.7655 10.3194 15.4674 10.7296 15.4674H11.2477C14.6037 15.4674 17.231 14.1048 17.9988 10.1619C18.3196 8.51471 18.1535 7.13936 17.3048 6.17207C17.0357 5.87284 16.7145 5.62514 16.3566 5.4411V5.4411Z" fill="#A0D7E7"/>
<path d="M15.4383 5.0749C15.158 4.99381 14.8729 4.93053 14.5846 4.88542C14.0149 4.79787 13.4392 4.75587 12.8629 4.7598H7.64536C7.23508 4.75949 6.88585 5.05839 6.82284 5.4638L5.7129 12.4939L5.68097 12.699C5.75242 12.2365 6.15054 11.8954 6.61845 11.8956H8.57149C12.4073 11.8956 15.4106 10.3379 16.2885 5.83142C16.3148 5.698 16.3368 5.56813 16.3566 5.4411C16.125 5.31962 15.8836 5.21778 15.6349 5.13664C15.5697 5.11501 15.5042 5.09443 15.4383 5.0749Z" fill="#002685"/>
<path d="M6.82284 5.46381C6.88533 5.05821 7.23497 4.75924 7.64536 4.76052H12.8629C13.481 4.76052 14.058 4.80097 14.5846 4.88613C14.9409 4.94213 15.2923 5.02589 15.6356 5.13665C15.8946 5.22252 16.1352 5.324 16.3574 5.4411C16.6185 3.77548 16.3552 2.64142 15.4546 1.61452C14.4618 0.484 12.6699 0 10.3769 0H3.72013C3.25174 0 2.85219 0.340645 2.77981 0.804065L0.00709783 18.3792C-0.0190385 18.5444 0.0283807 18.7127 0.136882 18.8399C0.245383 18.9671 0.404103 19.0404 0.571291 19.0406H4.68103L5.7129 12.4939L6.82284 5.46381Z" fill="#002685"/>
</svg>
